<svg xmlns="http://www.w3.org/2000/svg" version="1.1" xmlns:xlink="http://www.w3.org/1999/xlink" xmlns:svgjs="http://svgjs.dev/svgjs" width="1000" height="999" viewBox="0 0 1000 999"><g transform="matrix(1,0,0,1,-0.215743440233382,-0.21552769679306039)"><svg viewBox="0 0 343 343" data-background-color="#ffffff" preserveAspectRatio="xMidYMid meet" height="999" width="1000" xmlns="http://www.w3.org/2000/svg" xmlns:xlink="http://www.w3.org/1999/xlink"><g id="tight-bounds" transform="matrix(1,0,0,1,0.0740000000000407,0.07400000000001228)"><svg viewBox="0 0 342.85155851775386 342.85155851775386" height="342.85155851775386" width="342.85155851775386"><g><svg></svg></g><g><svg viewBox="0 0 342.85155851775386 342.85155851775386" height="342.85155851775386" width="342.85155851775386"><g><path d="M0 171.426c0-94.676 76.75-171.426 171.426-171.426 94.676 0 171.426 76.75 171.426 171.426 0 94.676-76.75 171.426-171.426 171.426-94.676 0-171.426-76.75-171.426-171.426zM171.426 331.795c88.569 0 160.369-71.8 160.369-160.369 0-88.569-71.8-160.369-160.369-160.369-88.569 0-160.369 71.8-160.369 160.369 0 88.569 71.8 160.369 160.369 160.369z" data-fill-palette-color="tertiary" fill="#000000" stroke="transparent"></path><ellipse rx="164.56874808852186" ry="164.56874808852186" cx="171.42577925887693" cy="171.42577925887693" fill="#000000" stroke="transparent" stroke-width="0" fill-opacity="1" data-fill-palette-color="tertiary"></ellipse></g><g transform="matrix(1,0,0,1,64.84655864529837,110.12207251835346)"><svg viewBox="0 0 213.1584412271571 122.60741348104695" height="122.60741348104695" width="213.1584412271571"><g><svg viewBox="0 0 213.1584412271571 122.60741348104695" height="122.60741348104695" width="213.1584412271571"><g><svg viewBox="0 0 213.1584412271571 122.60741348104695" height="122.60741348104695" width="213.1584412271571"><g><svg viewBox="0 0 213.1584412271571 122.60741348104695" height="122.60741348104695" width="213.1584412271571"><g id="textblocktransform"><svg viewBox="0 0 213.1584412271571 122.60741348104695" height="122.60741348104695" width="213.1584412271571" id="textblock"><g><svg viewBox="0 0 213.1584412271571 122.60741348104695" height="122.60741348104695" width="213.1584412271571"><g transform="matrix(1,0,0,1,0,0)"><svg width="213.1584412271571" viewBox="1.7000000476837158 -37.099998474121094 64.5 37.099998474121094" height="122.60741348104695" data-palette-color="#ffffff"><path d="M2.75 0L2.75 0Q2.15 0 1.93-0.2 1.7-0.4 1.7-1L1.7-1 1.7-2.8Q1.7-3.45 1.85-3.78 2-4.1 2.55-4.85L2.55-4.85 19.6-30Q20-30.65 19.2-30.65L19.2-30.65 3.9-30.65Q3.4-30.65 3.23-30.88 3.05-31.1 3.05-31.6L3.05-31.6 3.05-36.25Q3.05-37.1 3.75-37.1L3.75-37.1 31.4-37.1Q32.15-37.1 32.15-36.3L32.15-36.3 32.15-34.25Q32.15-33.8 32-33.48 31.85-33.15 31.45-32.6L31.45-32.6 14-7.1Q13.75-6.75 13.95-6.63 14.15-6.5 14.45-6.5L14.45-6.5 31.05-6.5Q31.95-6.5 31.95-5.75L31.95-5.75 31.95-0.9Q31.95-0.5 31.73-0.25 31.5 0 31 0L31 0 2.75 0ZM36.8 0L36.8 0Q36.2 0 35.97-0.2 35.75-0.4 35.75-1L35.75-1 35.75-2.8Q35.75-3.45 35.9-3.78 36.05-4.1 36.6-4.85L36.6-4.85 53.65-30Q54.05-30.65 53.25-30.65L53.25-30.65 37.95-30.65Q37.45-30.65 37.27-30.88 37.1-31.1 37.1-31.6L37.1-31.6 37.1-36.25Q37.1-37.1 37.8-37.1L37.8-37.1 65.45-37.1Q66.2-37.1 66.2-36.3L66.2-36.3 66.2-34.25Q66.2-33.8 66.05-33.48 65.9-33.15 65.5-32.6L65.5-32.6 48.05-7.1Q47.8-6.75 48-6.63 48.2-6.5 48.5-6.5L48.5-6.5 65.1-6.5Q66-6.5 66-5.75L66-5.75 66-0.9Q66-0.5 65.77-0.25 65.55 0 65.05 0L65.05 0 36.8 0Z" opacity="1" transform="matrix(1,0,0,1,0,0)" fill="#ffffff" class="undefined-text-0" data-fill-palette-color="quaternary" id="text-0"></path></svg></g></svg></g></svg></g></svg></g><g></g></svg></g></svg></g></svg></g></svg></g><defs></defs></svg><rect width="342.85155851775386" height="342.85155851775386" fill="none" stroke="none" visibility="hidden"></rect></g></svg></g></svg>